<?xml version="1.0" encoding="UTF-8" standalone="no"?>
<svg
   xmlns:dc="http://purl.org/dc/elements/1.1/"
   xmlns:cc="http://creativecommons.org/ns#"
   xmlns:rdf="http://www.w3.org/1999/02/22-rdf-syntax-ns#"
   xmlns:svg="http://www.w3.org/2000/svg"
   xmlns="http://www.w3.org/2000/svg"
   viewBox="0 0 3839.5601 1806.64"
   height="1806.64"
   width="3839.5601"
   xml:space="preserve"
   id="svg2"
   version="1.1"><metadata
     id="metadata8"><rdf:RDF><cc:Work
         rdf:about=""><dc:format>image/svg+xml</dc:format><dc:type
           rdf:resource="http://purl.org/dc/dcmitype/StillImage" /></cc:Work></rdf:RDF></metadata><defs
     id="defs6"><clipPath
       id="clipPath18"
       clipPathUnits="userSpaceOnUse"><path
         id="path16"
         d="M 0,1354.976 H 2879.665 V 0 H 0 Z" /></clipPath></defs><g
     transform="matrix(1.3333333,0,0,-1.3333333,0,1806.64)"
     id="g10"><g
       id="g12"><g
         clip-path="url(#clipPath18)"
         id="g14"><g
           transform="translate(2307.4448,1046.6564)"
           id="g20"><path
             id="path22"
             style="fill:#525a90;fill-opacity:1;fill-rule:nonzero;stroke:none"
             d="m 0,0 h -0.001 c -3.352,-1.566 -6.498,-3.016 -9.256,-4.259 -5.461,-1.678 -11.344,-1.647 -11.521,6.165 -0.333,14.636 47.607,106.193 47.805,106.572 17.082,28.77 39.211,65.092 67.896,110.963 0,0 -2.4,0.662 -6.69,1.525 0,0 -0.651,0.178 -2.076,0.403 -0.906,0.171 -1.869,0.345 -2.898,0.522 -0.125,-0.037 -0.262,-0.074 -0.391,-0.111 -7.861,0.78 -25.188,1.257 -57.312,-3.234 -16.768,-2.344 -25.595,-4.711 -30.008,-6.794 -0.606,-0.042 -0.938,-0.065 -0.938,-0.065 0,0 -14.964,-5.092 -23.527,-10.984 -30.457,-42 -137.047,-197.223 -156.994,-338.496 h 15.39 c 0,0 34.046,45.917 88.63,64.146 -9.596,-20.883 -49.861,-111.899 -60.999,-192.22 h 15.539 c 0,0 84.09,167.135 115.448,212.952 1.406,1.955 2.814,3.906 4.23,5.849 4.231,5.848 51.037,67.911 51.037,67.911 0,0 -15.379,-7.55 -30.973,-14.99 z" /></g><g
           transform="translate(1439.6832,1265.2028)"
           id="g24"><path
             id="path26"
             style="fill:#35acb4;fill-opacity:1;fill-rule:nonzero;stroke:none"
             d="m 0,0 h -154.5 -115.29 -6.328 l -26.84,-458.023 h 12.131 109.487 144.96 l -1.401,76.458 h -139.078 l 16.342,278.892 -34.788,0.845 c -7.676,0.186 -11.889,-4.334 -13.415,-6.41 -0.216,-0.345 -0.437,-0.681 -0.665,-1.008 -0.001,-0.002 -0.004,-0.008 -0.004,-0.008 -10e-4,0 -10e-4,0.001 -10e-4,0.001 -3.191,-4.594 -7.422,-7.361 -12.006,-7.249 -9.48,0.23 -16.868,12.671 -16.5,27.787 0.367,15.116 8.35,27.184 17.831,26.954 4.624,-0.113 8.743,-3.143 11.712,-7.961 0.001,0.006 0.002,0.012 0.003,0.017 0,0 0.048,-0.096 0.15,-0.264 0.008,-0.012 0.015,-0.025 0.023,-0.037 0.785,-1.277 4.395,-6.2 13.463,-6.42 l 1.433,-0.034 c -0.009,0 -0.022,0.002 -0.022,0.002 h 34.323 14.731 121.703 z" /></g><g
           transform="translate(2727.8726,1265.2028)"
           id="g28"><path
             id="path30"
             style="fill:#35acb4;fill-opacity:1;fill-rule:nonzero;stroke:none"
             d="m 0,0 h -154.5 -115.29 -6.328 l -26.84,-458.023 h 12.131 109.487 144.96 l -1.401,76.458 h -139.078 l 16.342,278.892 -34.788,0.845 c -7.676,0.186 -11.889,-4.334 -13.415,-6.41 -0.216,-0.345 -0.437,-0.681 -0.665,-1.008 -0.001,-0.002 -0.005,-0.008 -0.005,-0.008 v 0.001 c -3.191,-4.594 -7.422,-7.361 -12.006,-7.249 -9.48,0.23 -16.868,12.671 -16.5,27.787 0.367,15.116 8.35,27.184 17.831,26.954 4.624,-0.113 8.743,-3.143 11.712,-7.961 0.001,0.006 0.002,0.012 0.003,0.017 0,0 0.048,-0.096 0.15,-0.264 0.008,-0.012 0.015,-0.025 0.023,-0.037 0.785,-1.277 4.395,-6.2 13.463,-6.42 l 1.433,-0.034 c -0.009,0 -0.022,0.002 -0.022,0.002 h 34.323 14.73 121.704 z" /></g><g
           transform="translate(2179.9458,780.7896)"
           id="g32"><path
             id="path34"
             style="fill:#42b1bc;fill-opacity:1;fill-rule:nonzero;stroke:none"
             d="m 0,0 c 0,0 105.113,200.988 205.305,303.709 0,0 -36.976,-5.666 -93.035,-38.169 0,0 -3.869,12.822 125.542,219.768 0,0 -59.344,16.4 -115.703,-7.753 0,0 -141.806,-184.283 -165.131,-349.482 0,0 35.716,39.958 106.089,68.585 C 63.067,196.658 12.673,91.396 0,0" /></g><g
           transform="translate(463.9996,1265.2028)"
           id="g36"><path
             id="path38"
             style="fill:#35acb4;fill-opacity:1;fill-rule:nonzero;stroke:none"
             d="m 0,0 h -154.499 -115.29 -6.328 l -14.609,-249.289 h -21.481 l 1.491,-76.458 h 15.511 l -7.752,-132.276 h 12.131 109.487 144.96 l -1.402,76.458 h -139.077 l 3.27,55.818 H -40.06 l -1.49,76.458 h -127.557 l 8.593,146.643 -33.693,0.818 c -7.677,0.186 -11.89,-4.334 -13.414,-6.41 -0.217,-0.345 -0.439,-0.681 -0.665,-1.008 -0.002,-0.002 -0.005,-0.008 -0.005,-0.008 0,0 0,0.001 -0.001,0.001 -3.191,-4.594 -7.422,-7.361 -12.006,-7.249 -9.48,0.23 -16.868,12.671 -16.5,27.787 0.367,15.116 8.35,27.184 17.83,26.954 4.625,-0.113 8.743,-3.143 11.714,-7.961 0.001,0.006 0.001,0.012 0.002,0.017 0,0 0.049,-0.096 0.15,-0.264 0.007,-0.012 0.016,-0.025 0.023,-0.037 0.785,-1.277 4.395,-6.2 13.463,-6.42 l 1.432,-0.034 c -0.008,0 -0.02,0.002 -0.02,0.002 h 33.225 15.828 120.606 z" /></g><g
           transform="translate(1109.4039,1265.2028)"
           id="g40"><path
             id="path42"
             style="fill:#35acb4;fill-opacity:1;fill-rule:nonzero;stroke:none"
             d="m 0,0 h -154.499 -115.29 -6.328 l -14.609,-249.289 h -21.481 l 1.491,-76.458 h 15.511 l -7.752,-132.276 h 12.131 109.487 144.96 l -1.402,76.458 h -139.077 l 3.27,55.818 H -40.06 l -1.49,76.458 h -127.557 l 8.589,146.577 -36.395,0.884 c -7.677,0.186 -11.89,-4.334 -13.415,-6.41 -0.216,-0.345 -0.438,-0.681 -0.665,-1.008 -0.001,-0.002 -0.004,-0.008 -0.004,-0.008 -10e-4,0 -10e-4,0.001 -10e-4,0.001 -3.191,-4.594 -7.422,-7.361 -12.006,-7.249 -9.48,0.23 -16.868,12.671 -16.501,27.787 0.367,15.116 8.351,27.184 17.831,26.954 4.624,-0.113 8.743,-3.143 11.713,-7.961 0.001,0.006 0.002,0.012 0.003,0.017 0,0 0.048,-0.096 0.149,-0.264 0.008,-0.012 0.016,-0.025 0.024,-0.037 0.785,-1.277 4.394,-6.2 13.463,-6.42 l 1.432,-0.034 c -0.008,0 -0.021,0.002 -0.021,0.002 h 35.932 13.122 123.312 z" /></g><g
           transform="translate(547.4938,724.8795)"
           id="g44"><path
             id="path46"
             style="fill:#35acb4;fill-opacity:1;fill-rule:nonzero;stroke:none"
             d="m 0,0 h -108.539 -176.701 -83.185 l 2.247,-111.087 h 74.428 l -32.486,-554.385 h 176.701 l 30.273,516.615 -37.421,0.909 c -11.154,0.272 -17.275,-6.298 -19.491,-9.313 -0.313,-0.501 -0.636,-0.989 -0.966,-1.464 -0.002,-0.004 -0.006,-0.013 -0.006,-0.013 0,0.001 0,0.001 -0.001,0.002 -4.637,-6.674 -10.785,-10.694 -17.444,-10.533 -13.774,0.335 -24.508,18.411 -23.974,40.374 0.534,21.963 12.132,39.496 25.907,39.161 6.719,-0.163 12.702,-4.565 17.018,-11.565 10e-4,0.007 0.002,0.015 0.003,0.024 0,0 0.071,-0.141 0.218,-0.384 0.012,-0.018 0.023,-0.036 0.034,-0.054 1.141,-1.855 6.385,-9.007 19.561,-9.328 l 2.081,-0.05 c -0.013,0.002 -0.03,0.004 -0.03,0.004 h 36.725 34.544 77.509 L 0,-101.103 Z" /></g><g
           transform="translate(1723.1549,1262.1447)"
           id="g48"><path
             id="path50"
             style="fill:#35acb4;fill-opacity:1;fill-rule:nonzero;stroke:none"
             d="m 0,0 h -74.704 -121.617 -57.254 l 1.547,-76.458 h 51.226 l -22.36,-381.565 h 121.618 l 20.836,355.569 -25.756,0.626 c -7.677,0.186 -11.89,-4.334 -13.414,-6.41 -0.217,-0.345 -0.438,-0.681 -0.665,-1.008 -10e-4,-0.002 -0.005,-0.008 -0.005,-0.008 0,0 0,0.001 -0.001,0.001 -3.19,-4.594 -7.422,-7.361 -12.006,-7.249 -9.48,0.23 -16.867,12.671 -16.5,27.787 0.368,15.116 8.35,27.184 17.83,26.954 4.625,-0.113 8.744,-3.143 11.714,-7.96 10e-4,0.005 10e-4,0.011 0.002,0.016 0,0 0.049,-0.096 0.151,-0.264 0.007,-0.012 0.015,-0.025 0.022,-0.037 0.785,-1.277 4.396,-6.2 13.463,-6.42 l 1.433,-0.034 c -0.008,0 -0.021,0.002 -0.021,0.002 h 25.276 23.777 53.346 L 0,-69.586 Z" /></g><g
           transform="translate(2089.0425,724.8795)"
           id="g52"><path
             id="path54"
             style="fill:#35acb4;fill-opacity:1;fill-rule:nonzero;stroke:none"
             d="m 0,0 h -108.538 -176.701 -83.186 l 2.247,-111.087 h 74.429 l -32.486,-554.385 h 176.701 l 30.273,516.615 -37.421,0.909 c -11.154,0.272 -17.275,-6.298 -19.491,-9.313 -0.314,-0.501 -0.636,-0.989 -0.966,-1.464 -0.002,-0.004 -0.006,-0.013 -0.006,-0.013 -10e-4,0.001 -10e-4,0.001 -10e-4,0.002 -4.637,-6.674 -10.785,-10.694 -17.445,-10.533 -13.773,0.335 -24.508,18.411 -23.973,40.374 0.533,21.963 12.132,39.496 25.906,39.161 6.72,-0.163 12.703,-4.565 17.018,-11.565 0.002,0.007 0.002,0.015 0.004,0.024 0,0 0.071,-0.141 0.218,-0.384 0.011,-0.018 0.023,-0.036 0.033,-0.054 1.142,-1.855 6.386,-9.007 19.561,-9.328 l 2.081,-0.05 c -0.012,0.002 -0.03,0.004 -0.03,0.004 h 36.725 34.545 77.509 L 0,-101.103 Z" /></g><g
           transform="translate(886.3307,610.3975)"
           id="g56"><path
             id="path58"
             style="fill:#35acb4;fill-opacity:1;fill-rule:nonzero;stroke:none"
             d="m 0,0 -43.747,-441.996 -97.984,0.349 40.264,406.805 -55.886,1.358 c -11.119,0.27 -17.22,-6.278 -19.429,-9.284 -0.313,-0.5 -0.634,-0.986 -0.963,-1.46 -0.002,-0.003 -0.007,-0.012 -0.007,-0.012 0,0 0,0.001 -10e-4,0.002 -4.622,-6.654 -10.75,-10.661 -17.389,-10.5 -13.415,0.326 -23.929,17.533 -23.912,38.741 -0.002,0.5 -0.003,1 0.007,1.505 0.151,7.487 1.625,14.448 4.051,20.328 0.162,0.4 0.332,0.792 0.503,1.183 0.012,0.027 0.023,0.055 0.036,0.084 4.703,10.698 12.534,17.656 21.241,17.444 6.698,-0.163 12.663,-4.551 16.966,-11.529 0.001,0.008 0.002,0.015 0.003,0.024 0,0 0.07,-0.14 0.218,-0.383 0.01,-0.018 0.022,-0.036 0.033,-0.055 1.138,-1.847 6.365,-8.978 19.499,-9.296 l 2.075,-0.051 c -0.013,10e-4 -0.03,0.003 -0.03,0.003 h 64.304 l -0.146,0.07 H 0.282 L -0.044,0.001 Z m -283.97,114.481 -59.042,-665.471 h 484.861 l 61.725,665.471 z" /></g><g
           transform="translate(1466.0162,610.3975)"
           id="g60"><path
             id="path62"
             style="fill:#35acb4;fill-opacity:1;fill-rule:nonzero;stroke:none"
             d="m 0,0 -43.748,-441.996 -97.983,0.349 40.264,406.805 -55.886,1.358 c -11.119,0.27 -17.22,-6.278 -19.429,-9.284 -0.314,-0.5 -0.635,-0.986 -0.963,-1.46 -0.002,-0.003 -0.007,-0.012 -0.007,-0.012 -10e-4,0 -10e-4,0.001 -10e-4,0.002 -4.622,-6.654 -10.75,-10.661 -17.39,-10.5 -13.414,0.326 -23.928,17.533 -23.911,38.741 -0.002,0.5 -0.004,1 0.007,1.505 0.15,7.487 1.625,14.448 4.05,20.328 0.163,0.4 0.333,0.792 0.503,1.183 0.013,0.027 0.024,0.055 0.036,0.084 4.704,10.698 12.534,17.656 21.242,17.444 6.698,-0.163 12.663,-4.551 16.966,-11.529 0.001,0.008 0.002,0.015 0.003,0.024 0,0 0.07,-0.14 0.217,-0.383 0.011,-0.018 0.022,-0.036 0.034,-0.055 1.137,-1.847 6.365,-8.978 19.499,-9.296 l 2.074,-0.051 c -0.012,10e-4 -0.03,0.003 -0.03,0.003 h 64.305 l -0.146,0.07 H 0.281 L -0.044,0.001 Z m -283.97,114.481 -59.042,-665.471 h 484.861 l 61.725,665.471 z" /></g><g
           transform="translate(754.8268,883.6378)"
           id="g64"><path
             id="path66"
             style="fill:#35acb4;fill-opacity:1;fill-rule:nonzero;stroke:none"
             d="m 0,0 h -132.562 -6.172 -0.344 -1.982 -33.605 c 0,0 0.013,0.001 0.02,0.002 l -1.431,-0.034 c -9.069,-0.221 -12.678,-5.144 -13.464,-6.42 -0.007,-0.012 -0.016,-0.025 -0.022,-0.037 -0.102,-0.168 -0.151,-0.264 -0.151,-0.264 -0.001,0.005 -0.001,0.01 -0.002,0.016 -2.971,-4.818 -7.089,-7.847 -11.714,-7.96 -9.48,-0.23 -17.463,11.837 -17.83,26.953 -0.367,15.117 7.02,27.557 16.5,27.788 4.584,0.111 8.816,-2.656 12.007,-7.249 v 10e-4 c 0,0 0.004,-0.006 0.005,-0.008 0.226,-0.328 0.448,-0.663 0.665,-1.009 1.524,-2.075 5.737,-6.596 13.414,-6.409 l 20.178,0.49 10.741,0.261 1.709,0.041 6.507,0.2 20.814,355.203 h -121.618 l -26.84,-458.023 h 12.131 109.487 144.96 z" /></g><g
           transform="translate(1937.2194,1016.4058)"
           id="g68"><path
             id="path70"
             style="fill:#35acb4;fill-opacity:1;fill-rule:nonzero;stroke:none"
             d="m 0,0 h -61.43 l 13.951,146.031 -38.582,0.938 c -7.676,0.186 -11.889,-4.334 -13.415,-6.41 -0.215,-0.345 -0.437,-0.681 -0.665,-1.008 -10e-4,-0.002 -0.005,-0.008 -0.005,-0.008 v 0.001 c -3.191,-4.594 -7.422,-7.361 -12.006,-7.25 -9.48,0.231 -16.868,12.672 -16.5,27.788 0.367,15.116 8.35,27.184 17.831,26.954 4.624,-0.113 8.742,-3.143 11.713,-7.961 0.001,0.006 0.002,0.011 0.003,0.017 0,0 0.047,-0.096 0.149,-0.264 0.008,-0.013 0.016,-0.025 0.023,-0.037 0.786,-1.277 4.395,-6.2 13.463,-6.42 l 1.433,-0.035 c -0.009,10e-4 -0.022,0.002 -0.022,0.002 h 39.093 l 0.012,0.122 h 61.43 z m 158.306,253.561 h -328.345 l -44.993,-507.122 h 129.416 l 16.123,181.733 50.854,-132.633 H 117.669 L 66.815,-71.828 h 62.621 z" /></g><g
           transform="translate(2456.3472,780.1187)"
           id="g72"><path
             id="path74"
             style="fill:#35acb4;fill-opacity:1;fill-rule:nonzero;stroke:none"
             d="m 0,0 -44.127,-421.105 -97.979,0.912 38.242,364.953 h -195.349 l -59.042,-665.471 h 182.607 l 15.057,152.134 -55.886,1.359 c -11.119,0.269 -17.22,-6.279 -19.429,-9.284 -0.313,-0.5 -0.634,-0.987 -0.963,-1.46 -0.002,-0.003 -0.007,-0.013 -0.007,-0.013 v 0.002 c -4.623,-6.653 -10.751,-10.661 -17.39,-10.5 -13.414,0.326 -23.929,17.534 -23.911,38.741 -0.002,0.5 -0.004,1 0.006,1.505 0.15,7.487 1.625,14.448 4.051,20.328 0.162,0.4 0.332,0.792 0.503,1.183 0.012,0.027 0.023,0.056 0.036,0.084 4.703,10.698 12.534,17.656 21.242,17.444 6.698,-0.163 12.663,-4.551 16.965,-11.529 0.001,0.009 0.002,0.016 0.004,0.024 0,0 0.069,-0.14 0.217,-0.383 0.01,-0.017 0.022,-0.035 0.033,-0.053 1.138,-1.849 6.365,-8.979 19.499,-9.298 l 2.075,-0.051 c -0.013,0.002 -0.03,0.004 -0.03,0.004 h 64.304 l -0.146,0.069 h 90.576 l -0.326,-3.329 0.044,-10e-4 -18.506,-186.976 h 204.234 l 55.42,597.487 h 0.001 L 193.81,0 Z" /></g></g></g></g></svg>